<svg xmlns="http://www.w3.org/2000/svg" viewBox="0 0 512 512">
  <defs>
    <linearGradient id="g" x1="0" x2="1">
      <stop offset="0" stop-color="#ef4444"/>
      <stop offset="1" stop-color="#991b1b"/>
    </linearGradient>
  </defs>
  <rect width="512" height="512" rx="96" fill="url(#g)"/>
  <!-- stylized raven "R" -->
  <path d="M180 360c0-50 40-90 90-90h40c20 0 40-20 40-40s-20-40-40-40h-150v-40h170c44 0 80 36 80 80 0 29-16 55-40 69 24 13 40 39 40 69v22h-52v-22c0-28-22-50-50-50h-38c-22 0-40 18-40 40v32h-50v-40z" fill="#fff"/>
</svg>